<svg xmlns="http://www.w3.org/2000/svg" width="689.197" height="642.824" viewBox="0 0 182.35 170.08">
    <g>
        <path d="M18.563 1.136s1.722-1.722 3.158 0c1.435 1.723 25.547 28.419 30.714 38.178 5.167 9.76 10.62 18.946 14.065 22.964 3.445 4.02 69.467 70.041 69.467 70.041s1.723-2.01 4.02 0c2.296 2.01.86 2.584.86 4.593 0 .233.35.784.95 1.558 15.839 16.507 27.102 27.563 27.755 29.157.665 1.576-.475 2.924-2.296 2.296-1.883-.663-13.45-12.244-29.765-28.205-.45-.314-.784-.5-.95-.5-2.009 0-2.583 1.435-4.592-.861-2.01-2.297 0-4.02 0-4.02S65.926 70.317 61.908 66.872c-4.02-3.444-13.205-8.898-22.964-14.065C29.184 47.639 2.488 23.526.765 22.09c-1.722-1.435 0-3.158 0-3.158s7.21-6.856 9.219-8.579c1.722-2.009 8.579-9.218 8.579-9.218z"/>
        <path d="M163.787.765s-1.722-1.722-3.157 0c-1.436 1.723-25.548 28.419-30.715 38.179-5.167 9.76-10.62 18.945-14.065 22.964-3.445 4.018-69.467 70.04-69.467 70.04s-1.723-2.01-4.02 0c-2.295 2.01-.86 2.584-.86 4.593 0 .233-.35.784-.95 1.558-15.839 16.507-27.102 27.563-27.755 29.157-.665 1.576.475 2.924 2.296 2.296 1.883-.663 13.45-12.244 29.765-28.204.45-.315.784-.501.95-.501 2.009 0 2.583 1.435 4.592-.861 2.01-2.297 0-4.019 0-4.019s66.023-66.022 70.041-69.467c4.02-3.444 13.205-8.898 22.964-14.065 9.76-5.167 36.456-29.28 38.179-30.715 1.722-1.435 0-3.157 0-3.157s-7.21-6.857-9.219-8.58c-1.722-2.009-8.579-9.218-8.579-9.218z"/>
    </g>
    <path d="M91.175 24.846c-2.18 0-4.336.109-6.464.316V46.45a46.464 46.464 0 0 1 12.93 0v-21.29a66.79 66.79 0 0 0-6.466-.315zm-9.685.71C52.528 29.81 29.497 52.841 25.24 81.803h21.467A45.283 45.283 0 0 1 81.49 47.021zm19.371 0V47.02a45.281 45.281 0 0 1 34.782 34.783h21.467c-4.256-28.962-27.286-51.993-56.249-56.249zm-76.014 59.47a66.789 66.789 0 0 0-.316 6.464c0 2.18.11 4.337.316 6.465h21.29a46.464 46.464 0 0 1 0-12.93zm111.366 0a46.468 46.468 0 0 1 0 12.929h21.291a66.79 66.79 0 0 0 .316-6.465c0-2.18-.109-4.336-.316-6.465zM25.24 101.173c4.255 28.963 27.287 51.995 56.25 56.251v-21.468a45.28 45.28 0 0 1-34.784-34.783zm110.403 0a45.279 45.279 0 0 1-34.782 34.783v21.468c28.963-4.256 51.995-27.288 56.25-56.251zm-50.932 35.354v21.29c2.128.208 4.284.317 6.464.317 2.181 0 4.337-.11 6.466-.316v-21.291a46.468 46.468 0 0 1-12.93 0z" color="#000" overflow="visible"/>
</svg>
